<?xml version="1.0" encoding="utf-8"?>
<!-- Generator: Adobe InDesign 4.0 SVG Export Plug-in, SVG Library version: 6.0 build 159 -->
<!DOCTYPE svg PUBLIC "-//W3C//DTD SVG 1.0//EN"    "http://www.w3.org/TR/SVG/DTD/svg10.dtd" [
	<!ENTITY ns_svg "http://www.w3.org/2000/svg">
	<!ENTITY ns_xlink "http://www.w3.org/1999/xlink">
]>
<svg  xmlns="&ns_svg;" xmlns:xlink="&ns_xlink;" width="595.276pt" height="841.89pt" xml:space="preserve">
<clipPath id="clp1" fill="none">
	<path shape-rendering="crispEdges" stroke="#000000" d="M0,0h595.276v841.89H0z"/>
</clipPath>
<g clip-path="url(#clp1)" fill="none">
	<g transform="matrix(1.1555 0.0404 -0.0404 1.1555 -278.8184 211.8814)">
		<path fill="#D28E61" d="M581.522,362.521c0.22-1.603-0.363-4.009-0.238-5.525c-1.222-5.897-1.477-12.762-4.665-16.693
			c-2.048-0.414-3.212-2.076-5.905-1.604c-1.353,0.833-2.883,1.491-3.499,3.062c-1.396,1.132-2.528,2.526-3.79,3.79
			c-1.028,0.332-2.166,0.555-3.572,0.51c-0.593,0.085-1.009-0.352-1.75-0.292c-5.158-1.273-10.867-0.215-15.599,0.802
			c-1.322,0.284-2.607,1.029-4.082,1.166c-1.865,0.174-3.567,0.222-5.394,0.219c-0.296,0.005-0.352-0.231-0.656-0.219
			c-0.943,0.044-1.625-0.173-2.551-0.146c-0.142-0.044-0.318-0.056-0.448-0.112c-0.435,1.552-0.875,3.1-1.228,4.723
			c0.381,1.589,0.271,3.746,0.93,5.013c0.666,4.626-0.575,7.585-1.475,10.841c-0.676,0.756-0.001,0.088-0.732,0.829
			c1.377,1.22,2.491,2.275,3.622,3.311c2.145-0.124,4.172-0.366,5.82-0.986c3.524-0.99,4.659-2.066,8.259-2.77
			c0.389-0.219,1.077-0.042,1.581-0.145c3.535,0.353,3.536,4.239,5.685,5.977c1.154,2.564,2.224,5.211,3.863,7.289
			c0.749,2.785,2.517,5.293,1.968,8.893c-0.026,2.914-0.9,4.98-1.604,7.216c0.054,0.467-0.236,0.654-0.224,1.078
			c-0.388,0.535-0.039,1.096-0.505,2.202c-0.686,1.209-1.723,2.068-2.843,2.843c-0.219,1.411-1.523,2.12-1.604,3.426
			c1.451,0.891,3.469,0.109,5.102-0.073c0.226-0.6,0.9-0.753,1.094-1.385c-0.09-0.566-0.206-1.106-0.146-1.822
			c0.532-0.756,1.608-1.877,2.241-2.533c0.613-1.148,0.565-1.149,0.967-2.06c0.103-3.906,1.498-6.52,1.822-10.205
			c0.401-0.862,0.291-1.142,0.602-2.094c0-0.365,0.491-1.332,0.491-1.696c0.324-0.502,0.402-1.25,0.583-1.895
			c-0.229-1.631-2.02-2.821-1.749-4.228c2.38,1.823,4.652,3.755,6.269,6.342c1.719,3.909,0.505,10.377,1.021,15.308
			c1.927,1.798,1.038,6.156,1.822,8.966c1.598-0.225,2.194-1.451,3.353-2.114c0.313-0.538,0.496-1.205,0.802-1.749
			c-0.083-1.812-1.322-2.468-1.968-3.718c-0.083-1.103,0.616-1.425,0.802-2.259c-1.723-5.194-0.956-13.127-0.802-19.244
			c-0.173-0.264-0.277-0.598-0.438-0.875c-3.047-2.007-5.851-4.257-7.289-7.872c0.066-0.406-0.065-0.615-0.146-0.875
			c0-0.365,0-0.729,0-1.094c0.415-2.063,0.913-4.044,1.531-5.904c0.634-2.735,1.064-6.428,0.292-9.331
			c-0.865-2.659-2.511-4.535-3.353-7.216c0.384,0.092,0.432-0.151,0.729-0.146c4.023,2.067,6.159,7.051,5.394,13.194
			c0.278,0.499,0.135,1.42,0.656,1.677c0.684-1.357,2.056-3.408,2.282-5.224c0.318-0.151,0.149,0.734,0.342,0.923
			c0.119,1.163-0.362,1.727-0.219,2.916c-0.431,4.464-0.85,6.523-0.219,9.622c0.407,1.051,0.64,2.276,1.458,2.916
			c0.073,0,0.146,0,0.219,0c0.339-0.882,0.018-3.77,0.633-5.122c0.391,3.466,1.071,8.677,3.377,10.225
			c0.156-1.186-0.455-3.408-0.292-5.321c0.133-0.305,0.595-0.28,0.656-0.656c-0.333-0.809-0.076-2.208-0.364-3.061
			c0.085-1.185-0.197-2.287,0-3.353c0.073-0.462-0.179-1.277,0.067-2.138c0.521,0.087,0.449,1.962,0.808,2.211
			c-0.344,2.569,0.416,4.627,1.239,6.269c0.502-0.137,0.4,0.329,0.729,0.365c0.159-3.239-0.977-6.785-0.656-10.424
			C580.628,362.171,581.549,362.839,581.522,362.521z M510.977,334.675c-4.083-3.796-8.65-7.108-14.977-8.659
			c-2.094-0.117-4.226-0.196-5.904-0.729c-0.239-0.247-0.495-0.477-0.875-0.583c-0.316,0-0.632,0-0.948,0
			c-1.7-1.143-2.971-2.715-4.446-4.082c-0.186,0.275-0.537,0.386-0.729,0.656c0.92,0.762,1.102,1.907,1.458,3.134
			c-3.089,1.576-4.841,4.489-6.779,7.216c-2.61,1.861-5.443,3.499-8.31,5.103c0.177,1.635-0.514,2.402-0.51,3.863
			c0.353,0.4,0.77,0.736,0.802,1.458c1.107,0.399,1.807,1.206,3.28,1.239c1.393-0.721,2.33-1.897,4.228-2.114
			c2.804,0.294,5.429-0.768,8.601-0.583c2.055-0.667,2.468-2.975,5.54-2.624c2.176,0.764,2.996,2.884,4.009,4.811
			c0.559,1.074,0.889,2.379,1.38,3.522c4.016-3.013,6.515-5.378,10.902-8.301C508.531,337.083,510.043,335.68,510.977,334.675z
			 M494.833,379.083c0.016,0.648,0.024,1.288-0.146,1.75c1.013,2.68,1.225,6.161,1.239,9.84c0.544,1.375,1.299,2.54,2.114,3.645
			c0.51,2.09,1.13,4.07,2.333,5.467c0.421-0.478,0.799-0.999,1.385-1.312c0.254-1.01,0.522-2.005,0.875-2.916
			c-0.1-1.188-0.949-1.626-1.75-2.114c-0.376-0.636-0.47-1.945-0.219-2.77c-0.138-0.615-0.554-0.952-0.875-1.385
			c-0.876-2.843-2.532-7.648-0.51-10.351c1.651-1.532,4.158-2.208,6.123-3.426c1.123,1.914,0.94,5.134,1.822,7.289
			c0.029,0.968,0.112,1.88,0.073,2.916c0.345,1.173-0.193,2.655,0,4.155c1.002,2.817,1.518,6.97,0.146,9.549
			c0.24,3.738-2.72,4.278-3.353,7.144c-0.591,0.551-0.908,1.376-1.239,2.187c2.235,0.17,3.612-0.519,5.467-0.729
			c0.194-0.535,0.618-0.84,0.875-1.312c-0.379-0.18-0.282-0.836-0.51-1.166c0.483-2.53,2.936-3.089,3.207-5.831
			c-0.474-2.211-0.302-5.299-0.146-7.726c0.354-0.473,0.24-1.412,0.51-1.968c0.094-2.26-0.157-3.967,0.146-5.977
			c0.365-3.029-0.055-6.842,0.474-9.707c-2.451,0.469-5.779,0.999-8.255,0.992c-2.698,0.111-5.15-0.058-7.732-0.085
			c-0.378,0.349-0.723,0.73-1.107,1.073C495.395,377.166,495.251,378.261,494.833,379.083z"/>
	</g>
	<g transform="matrix(-1.1555 0.0404 0.0404 1.1555 878.7915 211.8469)">
		<path fill="#B74B0F" d="M533.328,347.958c1.816,0.003,3.507-0.045,5.361-0.219c1.466-0.137,3.924-0.956,5.237-1.24
			c4.703-1.016,9.197-2.001,14.323-0.728c0.736-0.061,1.149,0.377,1.739,0.292c1.397,0.045,2.528-0.178,3.55-0.51
			c1.254-1.265,2.38-2.659,3.767-3.79c0.613-1.57,2.132-2.228,3.477-3.062c2.676-0.472,3.833,1.19,5.868,1.604
			c3.168,3.931,3.422,10.795,4.636,16.693c-0.125,1.516,0.455,3.922,0.236,5.525c0.027,0.318-0.889-0.35-0.888-0.058
			c-0.319,3.639,0.81,7.185,0.652,10.424c-0.327-0.036-0.225-0.502-0.724-0.365c-0.818-1.642-1.573-3.7-1.232-6.269
			c-0.357-0.249-0.285-2.124-0.803-2.211c-0.245,0.861,0.005,1.676-0.067,2.138c-0.196,1.066,0.085,2.168,0,3.353
			c0.286,0.854,0.031,2.253,0.362,3.062c-0.061,0.376-0.52,0.352-0.652,0.656c-0.162,1.913,0.445,4.135,0.29,5.321
			c-2.291-1.548-2.967-6.759-3.356-10.225c-0.611,1.353-0.292,4.241-0.629,5.122c-0.073,0-0.145,0-0.218,0
			c-0.812-0.64-1.045-1.864-1.449-2.916c-0.628-3.099-0.211-5.158,0.218-9.622c-0.143-1.188,0.335-1.752,0.217-2.916
			c-0.192-0.189-0.024-1.074-0.34-0.923c-0.224,1.816-1.588,3.866-2.268,5.224c-0.518-0.257-0.375-1.178-0.652-1.677
			c0.76-6.142-1.362-11.126-5.361-13.194c-0.295-0.005-0.343,0.238-0.724,0.146c0.837,2.681,2.473,4.558,3.332,7.216
			c0.768,2.902,0.34,6.596-0.29,9.331c-0.614,1.86-1.108,3.842-1.521,5.904c0,0.365,0,0.729,0,1.094
			c0.08,0.26,0.21,0.468,0.145,0.875c1.429,3.616,4.216,5.866,7.245,7.872c0.16,0.277,0.263,0.61,0.435,0.875
			c-0.154,6.117-0.916,14.05,0.797,19.244c-0.185,0.834-0.879,1.156-0.797,2.259c0.642,1.249,1.873,1.905,1.956,3.718
			c-0.304,0.544-0.486,1.212-0.797,1.749c-1.152,0.663-1.745,1.889-3.332,2.114c-0.779-2.809,0.104-7.167-1.811-8.966
			c-0.513-4.931,0.694-11.398-1.014-15.308c-1.607-2.587-3.864-4.519-6.23-6.342c-0.269,1.406,1.511,2.596,1.739,4.228
			c-0.18,0.645-0.257,1.393-0.58,1.895c0,0.365-0.488,1.332-0.488,1.696c-0.309,0.952-0.2,1.232-0.599,2.094
			c-0.323,3.685-1.709,6.3-1.811,10.205c-0.399,0.91-0.352,0.912-0.961,2.06c-0.629,0.655-1.698,1.777-2.227,2.533
			c-0.06,0.717,0.056,1.256,0.145,1.822c-0.193,0.632-0.862,0.785-1.087,1.385c-1.624,0.182-3.629,0.964-5.071,0.073
			c0.08-1.307,1.376-2.015,1.594-3.426c1.113-0.775,2.144-1.634,2.825-2.843c0.463-1.106,0.115-1.667,0.502-2.202
			c-0.012-0.425,0.277-0.611,0.223-1.078c0.699-2.236,1.568-4.303,1.594-7.216c0.545-3.6-1.212-6.108-1.956-8.893
			c-1.629-2.079-2.693-4.725-3.839-7.289c-2.136-1.738-2.138-5.624-5.651-5.977c-0.501,0.103-1.185-0.074-1.572,0.145
			c-3.578,0.704-4.706,1.781-8.209,2.77c-3.771,1.429-8.703,1.35-13.752,1.494c-2.397,0.174-6.524-0.48-8.706-0.765
			c-1.724,2.736-0.826,8.11-1.304,12.1c-0.301,2.01-0.051,3.717-0.145,5.977c-0.268,0.556-0.155,1.496-0.507,1.968
			c-0.156,2.427-0.326,5.515,0.145,7.727c-0.269,2.742-2.708,3.301-3.188,5.832c0.227,0.331,0.131,0.986,0.507,1.166
			c-0.255,0.472-0.676,0.778-0.869,1.312c-1.844,0.21-3.212,0.899-5.433,0.729c0.329-0.811,0.644-1.636,1.232-2.187
			c0.629-2.866,3.57-3.405,3.332-7.144c1.364-2.579,0.851-6.732-0.145-9.549c-0.192-1.5,0.343-2.982,0-4.155
			c0.039-1.035-0.044-1.948-0.072-2.916c-0.877-2.155-0.695-5.375-1.811-7.289c-1.953,1.218-4.444,1.894-6.085,3.426
			c-2.009,2.703-0.363,7.508,0.507,10.351c0.318,0.432,0.732,0.77,0.869,1.385c-0.25,0.825-0.156,2.134,0.217,2.77
			c0.795,0.488,1.64,0.926,1.739,2.114c-0.35,0.911-0.617,1.906-0.869,2.916c-0.582,0.313-0.958,0.834-1.376,1.312
			c-1.195-1.397-1.811-3.377-2.318-5.467c-0.809-1.105-1.56-2.269-2.101-3.645c-0.014-3.679-0.225-7.16-1.232-9.84
			c0.169-0.462,0.161-1.102,0.145-1.75c0.415-0.821,0.558-1.916,0.942-2.77c2.462-2.212,4.784-4.566,7.1-6.925
			c-0.505-0.755-1.173-1.347-1.811-1.968c-0.988-2.796-2.256-5.311-1.956-9.403c0.5-1.15,0.271-3.032,0.507-4.447
			c-1.131-3.868-2.499-7.497-4.202-10.788c-1.006-1.927-1.822-4.047-3.984-4.811c-3.053-0.351-3.464,1.958-5.506,2.624
			c-3.153-0.185-5.762,0.877-8.548,0.583c-1.886,0.216-2.817,1.393-4.202,2.114c-1.464-0.033-2.16-0.84-3.26-1.239
			c-0.031-0.722-0.446-1.057-0.797-1.458c-0.004-1.462,0.683-2.229,0.507-3.863c2.849-1.604,5.665-3.241,8.259-5.102
			c1.926-2.727,3.668-5.64,6.737-7.216c-0.353-1.228-0.535-2.372-1.449-3.134c0.191-0.27,0.539-0.381,0.725-0.656
			c1.467,1.367,2.729,2.94,4.419,4.082c0.314,0,0.628,0,0.942,0c0.378,0.106,0.632,0.336,0.869,0.583
			c1.668,0.533,3.787,0.612,5.868,0.729c6.749,1.665,11.51,5.33,15.793,9.476c0.412,0.424,0.625,0.521,1.232,1.166
			c0.746,0.955,1.538,1.465,2.101,2.405c4.24,2.415,8.095,5.218,12.171,7.8c0.388,0.022,0.623,0.2,0.869,0.364
			c0.841,0.191,0.989,0.22,1.449,0.365"/>
	</g>
	<g transform="matrix(6.123234e-17 -1 1 6.123234e-17 233.9171 743.4108)">
		<path fill="#000000" d="M-34.367,171.69c0,0,1.056-0.05,1.056-1.057c0-0.252-0.144-0.453-0.288-0.604
			c-0.24-0.352-0.624-0.352-0.624-0.352s-1.296,0.05-2.16,0.101c-0.624-0.101-0.816-0.503-0.864-1.208c0,0,0-10.42,0-10.42
			c0-2.265,0.096-4.883,0.096-7.35c0-2.215-0.096-2.165-0.096-7.501c0.048-5.89,0.096-176.232,0.096-176.735
			c0-1.258-0.192-5.235-0.192-7.4c0-0.906,0.336-1.309,1.248-1.309c0.624,0,1.2,0,1.728-0.05c0,0,1.056-0.151,1.056-1.158
			c0-0.252-0.144-0.453-0.288-0.604c-0.24-0.352-0.624-0.352-0.624-0.352s-3.168,0-3.168,0c-0.336-0.05-0.624,0-0.96,0
			c0,0-1.056-0.05-1.056,0.956c-0.048,1.057-0.048,1.309-0.048,2.165c0,1.561-0.096,6.141-0.048,9.867
			c0,0.956,0,171.852,0.048,177.188c0.048,3.826,0.144,7.45,0.144,8.205c0.048,6.141,0.096,6.141,0.096,7.249
			c0,0-0.048,4.027-0.048,4.027c0,2.92,0.096,5.286,0.096,5.286c0,0.956,0.912,1.057,0.912,1.057
			C-36.095,171.891-35.375,171.74-34.367,171.69z"/>
	</g>
	<g transform="matrix(6.123234e-17 1 -1 6.123234e-17 351.552 762.9166)">
		<path fill="#000000" d="M-34.367,161.647c0,0,1.056-0.05,1.056-1.056c0-0.251-0.144-0.453-0.288-0.603
			c-0.24-0.352-0.624-0.352-0.624-0.352s-1.296,0.05-2.16,0.101c-0.624-0.101-0.816-0.503-0.864-1.207c0,0,0-10.41,0-10.41
			c0-2.263,0.096-4.878,0.096-7.342c0-2.213-0.096-2.162-0.096-7.493c0.048-5.884,0.096-176.054,0.096-176.556
			c0-1.257-0.192-5.23-0.192-7.392c0-0.905,0.336-1.307,1.248-1.307c0.624,0,1.2,0,1.728-0.05c0,0,1.056-0.151,1.056-1.157
			c0-0.251-0.144-0.453-0.288-0.603c-0.24-0.352-0.624-0.352-0.624-0.352s-3.168,0-3.168,0c-0.336-0.05-0.624,0-0.96,0
			c0,0-1.056-0.05-1.056,0.955c-0.048,1.056-0.048,1.307-0.048,2.162c0,1.559-0.096,6.135-0.048,9.857
			c0,0.955,0,171.678,0.048,177.009c0.048,3.822,0.144,7.443,0.144,8.197c0.048,6.135,0.096,6.135,0.096,7.242
			c0,0-0.048,4.023-0.048,4.023c0,2.917,0.096,5.28,0.096,5.28c0,0.955,0.912,1.056,0.912,1.056
			C-36.095,161.848-35.375,161.697-34.367,161.647z"/>
	</g>
	<g transform="matrix(1 0 0 1 328.4646 824.9747)">
		<path fill="#B74B0F" d="M-121.054-61.912c-0.523,1.044-1.301,1.566-2.333,1.566c-0.658,0-1.23-0.248-1.716-0.745
			s-0.729-1.079-0.729-1.746c0-0.578,0.184-1.078,0.551-1.501c0.367-0.422,0.806-0.634,1.316-0.634c0.27,0,0.54,0.054,0.81,0.161
			c0.225,0.081,0.39,0.121,0.495,0.121c0.51,0,0.765-0.29,0.765-0.871c0-0.625-0.442-1.209-1.327-1.752s-1.844-0.815-2.878-0.815
			c-1.694,0-3.082,0.636-4.161,1.906c-0.84,1.001-1.259,2.16-1.259,3.476c0,1.929,0.801,3.476,2.404,4.642
			c1.573,1.151,3.482,1.727,5.729,1.727c3.37,0,6.216-1.294,8.538-3.884c1.303-1.481,1.955-2.687,1.955-3.615
			c0-0.329-0.156-0.726-0.469-1.19c-0.759-1.078-1.124-2.537-1.094-4.378c0,0,0-8.67,0-8.67c0-2.739,0.097-4.501,0.291-5.288
			c0.194-0.786,0.709-1.486,1.545-2.1c0.776-0.584,1.164-1.063,1.164-1.438c0-0.224-0.098-0.426-0.292-0.606s-0.412-0.27-0.651-0.27
			c-0.18,0-0.442,0.074-0.787,0.222c-1.589,0.665-3.087,0.997-4.496,0.997c-1.333,0-2.832-0.272-4.495-0.816
			c-0.645-0.206-1.079-0.309-1.304-0.309c-0.255,0-0.476,0.086-0.663,0.258s-0.281,0.378-0.281,0.617
			c0,0.419,0.359,0.823,1.079,1.212c1.184,0.629,1.94,1.388,2.27,2.278c0.33,0.891,0.495,2.637,0.495,5.241c0,0,0,12.758,0,12.758
			C-120.583-63.671-120.74-62.523-121.054-61.912C-121.054-61.912-121.054-61.912-121.054-61.912z M-96.498-58.304
			c0.075,0.464,0.217,0.771,0.427,0.921c0.209,0.15,0.591,0.225,1.146,0.225c0,0,4.604,0,4.604,0c0.541,0,0.812-0.217,0.812-0.651
			c0-0.209-0.045-0.371-0.135-0.483c-0.09-0.112-0.323-0.288-0.699-0.528c-0.524-0.225-0.943-1.235-1.258-3.032
			c0,0-1.548-10.274-1.548-10.274c-0.568-3.792-2.356-5.688-5.363-5.688c-0.613,0-1.287,0.051-2.02,0.153
			c-1.316,0.189-2.296,0.284-2.939,0.284c-0.628,0-1.556-0.217-2.783-0.651c-0.239-0.087-0.412-0.13-0.516-0.13
			c-0.299,0-0.591,0.289-0.875,0.866s-0.426,1.18-0.426,1.81c0,1.454,0.508,2.607,1.524,3.462c0.657,0.555,1.457,0.832,2.398,0.832
			c0.643,0,1.232-0.112,1.771-0.337c0.538-0.225,0.807-0.472,0.807-0.742c0-0.24-0.075-0.405-0.223-0.495
			c-0.477-0.285-0.714-0.585-0.714-0.9c0-0.3,0.126-0.551,0.379-0.753c0.253-0.202,0.558-0.304,0.915-0.304
			c0.774,0,1.38,0.367,1.819,1.1s0.822,1.997,1.149,3.791c0.387,2.139,0.581,3.882,0.581,5.228c0,1.211-0.291,2.188-0.872,2.928
			s-1.341,1.11-2.28,1.11c-0.775,0-1.386-0.292-1.833-0.876c-0.447-0.599-0.671-1.318-0.671-2.157c0-0.719,0.183-1.325,0.549-1.819
			s0.818-0.742,1.357-0.742c0.643,0,1.151,0.381,1.525,1.143c0.134,0.259,0.284,0.389,0.448,0.389c0.269,0,0.497-0.168,0.684-0.505
			c0.187-0.337,0.28-0.752,0.28-1.246c0-1.197-0.371-2.147-1.112-2.85s-1.741-1.055-2.999-1.055c-1.572,0-2.965,0.523-4.178,1.57
			c-1.453,1.271-2.179,3.006-2.179,5.204c0,1.885,0.562,3.44,1.686,4.666c1.333,1.436,3.026,2.153,5.079,2.153
			c2.501,0,4.314-1.084,5.438-3.254C-96.745-59.943-96.498-58.304-96.498-58.304z M-80.99-77.252c0,0,0-5.57,0-5.57
			c0-0.748-0.06-1.231-0.18-1.448c-0.12-0.217-0.382-0.326-0.786-0.326c-0.554,0-0.914,0.367-1.078,1.102
			c-0.359,1.544-0.696,2.623-1.011,3.237c-0.943,1.858-2.561,3.065-4.852,3.62c0,0,0,2.073,0,2.073h2.594c0,0,0,12.612,0,12.612
			c0,1.538,0.172,2.665,0.517,3.381c0.285,0.553,0.771,1.004,1.461,1.355s1.446,0.526,2.271,0.526c1.618,0,2.982-0.553,4.091-1.66
			c0.794-0.792,1.191-1.496,1.191-2.109c0-0.404-0.188-0.606-0.564-0.606c-0.136,0-0.346,0.103-0.632,0.308
			c-0.466,0.337-0.925,0.505-1.376,0.505c-0.677,0-1.151-0.355-1.421-1.067c-0.15-0.4-0.226-1.082-0.226-2.044
			c0,0,0-11.201,0-11.201h3.281v-2.688H-80.99z M-65.983-57.832c0-0.284-0.242-0.569-0.724-0.854
			c-0.559-0.329-0.905-0.842-1.041-1.539s-0.204-2.28-0.204-4.75c0,0,0-11.792,0-11.792c0-0.698-0.195-1.048-0.583-1.048
			c-0.24,0-0.532,0.127-0.875,0.381c-1.317,1.047-2.985,1.743-5.005,2.087c-0.524,0.075-0.786,0.322-0.786,0.74
			c0,0.3,0.203,0.554,0.608,0.763c0.615,0.314,0.991,0.669,1.126,1.066s0.203,1.328,0.203,2.793c0,0,0,5.009,0,5.009
			c0,2.456-0.068,4.036-0.204,4.739c-0.136,0.704-0.483,1.221-1.041,1.55c-0.483,0.285-0.724,0.569-0.724,0.854
			c0,0.449,0.349,0.674,1.048,0.674c0,0,7.154,0,7.154,0C-66.333-57.158-65.983-57.383-65.983-57.832
			C-65.983-57.832-65.983-57.832-65.983-57.832z M-72.592-83.871c-0.553,0.545-0.829,1.199-0.829,1.961
			c0,0.792,0.272,1.464,0.818,2.017c0.545,0.553,1.214,0.829,2.006,0.829c0.777,0,1.438-0.276,1.983-0.829
			c0.545-0.553,0.818-1.217,0.818-1.995c0-0.762-0.273-1.419-0.818-1.972c-0.545-0.553-1.191-0.829-1.938-0.829
			C-71.359-84.689-72.039-84.416-72.592-83.871z M-54.995-57.349c0.197-0.127,0.296-0.288,0.296-0.483
			c0-0.284-0.242-0.569-0.724-0.854c-0.543-0.329-0.886-0.846-1.03-1.55c-0.144-0.704-0.215-2.283-0.215-4.739
			c0,0,0-22.438,0-22.438c0-0.705-0.195-1.058-0.583-1.058c-0.24,0-0.532,0.127-0.875,0.382c-1.302,1.049-2.97,1.745-5.005,2.089
			c-0.524,0.075-0.786,0.322-0.786,0.742c0,0.3,0.203,0.554,0.608,0.764c0.615,0.314,0.991,0.67,1.126,1.067
			s0.203,1.329,0.203,2.797c0,0,0,15.655,0,15.655c0,2.471-0.072,4.054-0.215,4.75s-0.486,1.209-1.029,1.539
			c-0.483,0.285-0.724,0.569-0.724,0.854c0,0.449,0.349,0.674,1.048,0.674c0,0,7.154,0,7.154,0
			C-55.443-57.158-55.193-57.222-54.995-57.349z M-39.9-58.304c0.075,0.464,0.217,0.771,0.427,0.921
			c0.209,0.15,0.591,0.225,1.146,0.225c0,0,4.604,0,4.604,0c0.541,0,0.812-0.217,0.812-0.651c0-0.209-0.045-0.371-0.135-0.483
			c-0.09-0.112-0.323-0.288-0.699-0.528c-0.524-0.225-0.943-1.235-1.258-3.032c0,0-1.548-10.274-1.548-10.274
			c-0.568-3.792-2.356-5.688-5.363-5.688c-0.613,0-1.287,0.051-2.02,0.153c-1.316,0.189-2.296,0.284-2.939,0.284
			c-0.628,0-1.556-0.217-2.783-0.651c-0.239-0.087-0.412-0.13-0.516-0.13c-0.299,0-0.591,0.289-0.875,0.866s-0.426,1.18-0.426,1.81
			c0,1.454,0.508,2.607,1.524,3.462c0.657,0.555,1.457,0.832,2.398,0.832c0.643,0,1.232-0.112,1.771-0.337
			c0.538-0.225,0.807-0.472,0.807-0.742c0-0.24-0.075-0.405-0.223-0.495c-0.477-0.285-0.714-0.585-0.714-0.9
			c0-0.3,0.126-0.551,0.379-0.753c0.253-0.202,0.558-0.304,0.915-0.304c0.774,0,1.38,0.367,1.819,1.1s0.822,1.997,1.149,3.791
			c0.387,2.139,0.581,3.882,0.581,5.228c0,1.211-0.291,2.188-0.872,2.928s-1.341,1.11-2.28,1.11c-0.775,0-1.386-0.292-1.833-0.876
			c-0.447-0.599-0.671-1.318-0.671-2.157c0-0.719,0.183-1.325,0.549-1.819s0.818-0.742,1.357-0.742c0.643,0,1.151,0.381,1.525,1.143
			c0.134,0.259,0.284,0.389,0.448,0.389c0.269,0,0.497-0.168,0.684-0.505c0.187-0.337,0.28-0.752,0.28-1.246
			c0-1.197-0.371-2.147-1.112-2.85s-1.741-1.055-2.999-1.055c-1.572,0-2.965,0.523-4.178,1.57c-1.453,1.271-2.179,3.006-2.179,5.204
			c0,1.885,0.562,3.44,1.686,4.666c1.333,1.436,3.026,2.153,5.079,2.153c2.501,0,4.314-1.084,5.438-3.254
			C-40.147-59.943-39.9-58.304-39.9-58.304z M-24.111-76.767c0-0.698-0.195-1.048-0.583-1.048c-0.24,0-0.532,0.127-0.875,0.381
			c-1.317,1.047-2.985,1.743-5.005,2.087c-0.524,0.075-0.786,0.322-0.786,0.74c0,0.3,0.203,0.554,0.608,0.763
			c0.615,0.314,0.991,0.669,1.126,1.066s0.203,1.328,0.203,2.793c0,0,0,5.009,0,5.009c0,2.456-0.068,4.036-0.204,4.739
			c-0.136,0.704-0.483,1.221-1.041,1.55c-0.483,0.285-0.724,0.569-0.724,0.854c0,0.449,0.349,0.674,1.048,0.674c0,0,7.156,0,7.156,0
			c0.697,0,1.046-0.225,1.046-0.674c0-0.284-0.242-0.569-0.724-0.854c-0.559-0.329-0.905-0.842-1.041-1.539s-0.204-2.28-0.204-4.75
			c0,0,0-4.784,0-4.784c0-1.274,0.259-2.263,0.776-2.968c0.518-0.704,1.242-1.057,2.172-1.057c1.065,0,1.764,0.502,2.094,1.506
			c0.18,0.555,0.27,1.394,0.27,2.518c0,0,0,4.784,0,4.784c0,2.456-0.071,4.036-0.213,4.739c-0.142,0.704-0.488,1.221-1.04,1.55
			c-0.478,0.285-0.716,0.569-0.716,0.854c0,0.449,0.349,0.674,1.046,0.674c0,0,7.156,0,7.156,0c0.698,0,1.048-0.225,1.048-0.674
			c0-0.284-0.242-0.569-0.724-0.854c-0.559-0.329-0.905-0.846-1.041-1.55c-0.136-0.704-0.204-2.283-0.204-4.739c0,0,0-5.997,0-5.997
			c0-1.26-0.022-2.071-0.067-2.431c-0.165-1.365-0.741-2.438-1.729-3.219c-1.004-0.795-2.232-1.193-3.684-1.193
			c-1.977,0-3.692,0.851-5.144,2.553C-24.111-75.262-24.111-76.767-24.111-76.767z M10.061-77.252c0,0,0-5.57,0-5.57
			c0-0.748-0.06-1.231-0.18-1.448c-0.12-0.217-0.382-0.326-0.786-0.326c-0.554,0-0.914,0.367-1.078,1.102
			c-0.359,1.544-0.696,2.623-1.011,3.237c-0.943,1.858-2.561,3.065-4.852,3.62c0,0,0,2.073,0,2.073h2.594c0,0,0,12.612,0,12.612
			c0,1.538,0.172,2.665,0.517,3.381c0.285,0.553,0.771,1.004,1.461,1.355s1.446,0.526,2.271,0.526c1.618,0,2.982-0.553,4.091-1.66
			c0.794-0.792,1.191-1.496,1.191-2.109c0-0.404-0.188-0.606-0.564-0.606c-0.136,0-0.346,0.103-0.632,0.308
			c-0.466,0.337-0.925,0.505-1.376,0.505c-0.677,0-1.151-0.355-1.421-1.067c-0.15-0.4-0.226-1.082-0.226-2.044
			c0,0,0-11.201,0-11.201h3.281v-2.688H10.061z M28.827-58.304c0.075,0.464,0.217,0.771,0.427,0.921
			c0.209,0.15,0.591,0.225,1.146,0.225c0,0,4.604,0,4.604,0c0.541,0,0.812-0.217,0.812-0.651c0-0.209-0.045-0.371-0.135-0.483
			c-0.09-0.112-0.323-0.288-0.699-0.528c-0.524-0.225-0.943-1.235-1.258-3.032c0,0-1.548-10.274-1.548-10.274
			c-0.568-3.792-2.356-5.688-5.363-5.688c-0.613,0-1.287,0.051-2.02,0.153c-1.316,0.189-2.296,0.284-2.939,0.284
			c-0.628,0-1.556-0.217-2.783-0.651c-0.239-0.087-0.412-0.13-0.516-0.13c-0.299,0-0.591,0.289-0.875,0.866s-0.426,1.18-0.426,1.81
			c0,1.454,0.508,2.607,1.524,3.462c0.657,0.555,1.457,0.832,2.398,0.832c0.643,0,1.232-0.112,1.771-0.337
			c0.538-0.225,0.807-0.472,0.807-0.742c0-0.24-0.075-0.405-0.223-0.495c-0.477-0.285-0.714-0.585-0.714-0.9
			c0-0.3,0.126-0.551,0.379-0.753c0.253-0.202,0.558-0.304,0.915-0.304c0.774,0,1.38,0.367,1.819,1.1s0.822,1.997,1.149,3.791
			c0.387,2.139,0.581,3.882,0.581,5.228c0,1.211-0.291,2.188-0.872,2.928s-1.341,1.11-2.28,1.11c-0.775,0-1.386-0.292-1.833-0.876
			c-0.447-0.599-0.671-1.318-0.671-2.157c0-0.719,0.183-1.325,0.549-1.819s0.818-0.742,1.357-0.742c0.643,0,1.151,0.381,1.525,1.143
			c0.134,0.259,0.284,0.389,0.448,0.389c0.269,0,0.497-0.168,0.684-0.505c0.187-0.337,0.28-0.752,0.28-1.246
			c0-1.197-0.371-2.147-1.112-2.85s-1.741-1.055-2.999-1.055c-1.572,0-2.965,0.523-4.178,1.57c-1.453,1.271-2.179,3.006-2.179,5.204
			c0,1.885,0.562,3.44,1.686,4.666c1.333,1.436,3.026,2.153,5.079,2.153c2.501,0,4.314-1.084,5.438-3.254
			C28.58-59.943,28.827-58.304,28.827-58.304z M46.163-57.349c0.197-0.127,0.296-0.288,0.296-0.483c0-0.284-0.242-0.569-0.724-0.854
			c-0.543-0.329-0.886-0.846-1.03-1.55c-0.144-0.704-0.215-2.283-0.215-4.739c0,0,0-22.438,0-22.438
			c0-0.705-0.195-1.058-0.583-1.058c-0.24,0-0.532,0.127-0.875,0.382c-1.302,1.049-2.97,1.745-5.005,2.089
			c-0.524,0.075-0.786,0.322-0.786,0.742c0,0.3,0.203,0.554,0.608,0.764c0.615,0.314,0.991,0.67,1.126,1.067
			s0.203,1.329,0.203,2.797c0,0,0,15.655,0,15.655c0,2.471-0.072,4.054-0.215,4.75s-0.486,1.209-1.029,1.539
			c-0.483,0.285-0.724,0.569-0.724,0.854c0,0.449,0.349,0.674,1.048,0.674c0,0,7.154,0,7.154,0
			C45.716-57.158,45.966-57.222,46.163-57.349z M57.325-57.349c0.197-0.127,0.296-0.288,0.296-0.483
			c0-0.284-0.242-0.569-0.724-0.854c-0.543-0.329-0.886-0.846-1.03-1.55c-0.144-0.704-0.215-2.283-0.215-4.739
			c0,0,0-22.438,0-22.438c0-0.705-0.195-1.058-0.583-1.058c-0.24,0-0.532,0.127-0.875,0.382c-1.302,1.049-2.97,1.745-5.005,2.089
			c-0.524,0.075-0.786,0.322-0.786,0.742c0,0.3,0.203,0.554,0.608,0.764c0.615,0.314,0.991,0.67,1.126,1.067
			s0.203,1.329,0.203,2.797c0,0,0,15.655,0,15.655c0,2.471-0.072,4.054-0.215,4.75s-0.486,1.209-1.029,1.539
			c-0.483,0.285-0.724,0.569-0.724,0.854c0,0.449,0.349,0.674,1.048,0.674c0,0,7.154,0,7.154,0
			C56.878-57.158,57.128-57.222,57.325-57.349z M68.909-57.832c0-0.284-0.242-0.569-0.724-0.854
			c-0.559-0.329-0.905-0.842-1.041-1.539s-0.204-2.28-0.204-4.75c0,0,0-11.792,0-11.792c0-0.698-0.195-1.048-0.583-1.048
			c-0.24,0-0.532,0.127-0.875,0.381c-1.317,1.047-2.985,1.743-5.005,2.087c-0.524,0.075-0.786,0.322-0.786,0.74
			c0,0.3,0.203,0.554,0.608,0.763c0.615,0.314,0.991,0.669,1.126,1.066s0.203,1.328,0.203,2.793c0,0,0,5.009,0,5.009
			c0,2.456-0.068,4.036-0.204,4.739c-0.136,0.704-0.483,1.221-1.041,1.55c-0.483,0.285-0.724,0.569-0.724,0.854
			c0,0.449,0.349,0.674,1.048,0.674c0,0,7.154,0,7.154,0C68.559-57.158,68.909-57.383,68.909-57.832
			C68.909-57.832,68.909-57.832,68.909-57.832z M62.301-83.871c-0.553,0.545-0.829,1.199-0.829,1.961
			c0,0.792,0.272,1.464,0.818,2.017c0.545,0.553,1.214,0.829,2.006,0.829c0.777,0,1.438-0.276,1.983-0.829
			c0.545-0.553,0.818-1.217,0.818-1.995c0-0.762-0.273-1.419-0.818-1.972c-0.545-0.553-1.191-0.829-1.938-0.829
			C63.533-84.689,62.853-84.416,62.301-83.871z"/>
	</g>
</g>
</svg>
