<?xml version="1.0" encoding="UTF-8" standalone="no"?>
<!-- Generator: Adobe InDesign 4.0 SVG Export Plug-in, SVG Library version: 6.0 build 159 -->

<svg
   xmlns:dc="http://purl.org/dc/elements/1.1/"
   xmlns:cc="http://creativecommons.org/ns#"
   xmlns:rdf="http://www.w3.org/1999/02/22-rdf-syntax-ns#"
   xmlns:svg="http://www.w3.org/2000/svg"
   xmlns="http://www.w3.org/2000/svg"
   xmlns:sodipodi="http://sodipodi.sourceforge.net/DTD/sodipodi-0.dtd"
   xmlns:inkscape="http://www.inkscape.org/namespaces/inkscape"
   width="220"
   height="190"
   xml:space="preserve"
   id="svg2"
   version="1.1"
   inkscape:version="0.48.4 r9939"
   sodipodi:docname="logoSvg2.svg"><metadata
     id="metadata33"><rdf:RDF><cc:Work
         rdf:about=""><dc:format>image/svg+xml</dc:format><dc:type
           rdf:resource="http://purl.org/dc/dcmitype/StillImage" /><dc:title /></cc:Work></rdf:RDF></metadata><defs
     id="defs31" /><sodipodi:namedview
     pagecolor="#ffffff"
     bordercolor="#666666"
     borderopacity="1"
     objecttolerance="10"
     gridtolerance="10"
     guidetolerance="10"
     inkscape:pageopacity="0"
     inkscape:pageshadow="2"
     inkscape:window-width="1437"
     inkscape:window-height="815"
     id="namedview29"
     showgrid="false"
     inkscape:zoom="1.2685909"
     inkscape:cx="281.22125"
     inkscape:cy="193.24857"
     inkscape:window-x="163"
     inkscape:window-y="99"
     inkscape:window-maximized="0"
     inkscape:current-layer="g7" /><clipPath
     id="clp1"
     fill="none"><path
       shape-rendering="crispEdges"
       d="M 0,0 H 595.276 V 841.89 H 0 z"
       id="path5"
       inkscape:connector-curvature="0"
       style="stroke:#000000" /></clipPath><g
     clip-path="url(#clp1)"
     id="g7"
     style="fill:none"
     transform="translate(-69.368304,-612.90242)"><g
       transform="matrix(1.1555,0.0404,-0.0404,1.1555,-397.05983,230.01176)"
       id="g9"
       style="fill:#ffffff;stroke:#000000;stroke-opacity:0.13725491"><path
         d="m 581.522,362.521 c 0.22,-1.603 -0.363,-4.009 -0.238,-5.525 -1.222,-5.897 -1.477,-12.762 -4.665,-16.693 -2.048,-0.414 -3.212,-2.076 -5.905,-1.604 -1.353,0.833 -2.883,1.491 -3.499,3.062 -1.396,1.132 -2.528,2.526 -3.79,3.79 -1.028,0.332 -2.166,0.555 -3.572,0.51 -0.593,0.085 -1.009,-0.352 -1.75,-0.292 -5.158,-1.273 -10.867,-0.215 -15.599,0.802 -1.322,0.284 -2.607,1.029 -4.082,1.166 -1.865,0.174 -3.567,0.222 -5.394,0.219 -0.296,0.005 -0.352,-0.231 -0.656,-0.219 -0.943,0.044 -1.625,-0.173 -2.551,-0.146 -0.142,-0.044 -0.318,-0.056 -0.448,-0.112 -0.435,1.552 -0.875,3.1 -1.228,4.723 0.381,1.589 0.271,3.746 0.93,5.013 0.666,4.626 -0.575,7.585 -1.475,10.841 -0.676,0.756 -10e-4,0.088 -0.732,0.829 1.377,1.22 2.491,2.275 3.622,3.311 2.145,-0.124 4.172,-0.366 5.82,-0.986 3.524,-0.99 4.659,-2.066 8.259,-2.77 0.389,-0.219 1.077,-0.042 1.581,-0.145 3.535,0.353 3.536,4.239 5.685,5.977 1.154,2.564 2.224,5.211 3.863,7.289 0.749,2.785 2.517,5.293 1.968,8.893 -0.026,2.914 -0.9,4.98 -1.604,7.216 0.054,0.467 -0.236,0.654 -0.224,1.078 -0.388,0.535 -0.039,1.096 -0.505,2.202 -0.686,1.209 -1.723,2.068 -2.843,2.843 -0.219,1.411 -1.523,2.12 -1.604,3.426 1.451,0.891 3.469,0.109 5.102,-0.073 0.226,-0.6 0.9,-0.753 1.094,-1.385 -0.09,-0.566 -0.206,-1.106 -0.146,-1.822 0.532,-0.756 1.608,-1.877 2.241,-2.533 0.613,-1.148 0.565,-1.149 0.967,-2.06 0.103,-3.906 1.498,-6.52 1.822,-10.205 0.401,-0.862 0.291,-1.142 0.602,-2.094 0,-0.365 0.491,-1.332 0.491,-1.696 0.324,-0.502 0.402,-1.25 0.583,-1.895 -0.229,-1.631 -2.02,-2.821 -1.749,-4.228 2.38,1.823 4.652,3.755 6.269,6.342 1.719,3.909 0.505,10.377 1.021,15.308 1.927,1.798 1.038,6.156 1.822,8.966 1.598,-0.225 2.194,-1.451 3.353,-2.114 0.313,-0.538 0.496,-1.205 0.802,-1.749 -0.083,-1.812 -1.322,-2.468 -1.968,-3.718 -0.083,-1.103 0.616,-1.425 0.802,-2.259 -1.723,-5.194 -0.956,-13.127 -0.802,-19.244 -0.173,-0.264 -0.277,-0.598 -0.438,-0.875 -3.047,-2.007 -5.851,-4.257 -7.289,-7.872 0.066,-0.406 -0.065,-0.615 -0.146,-0.875 0,-0.365 0,-0.729 0,-1.094 0.415,-2.063 0.913,-4.044 1.531,-5.904 0.634,-2.735 1.064,-6.428 0.292,-9.331 -0.865,-2.659 -2.511,-4.535 -3.353,-7.216 0.384,0.092 0.432,-0.151 0.729,-0.146 4.023,2.067 6.159,7.051 5.394,13.194 0.278,0.499 0.135,1.42 0.656,1.677 0.684,-1.357 2.056,-3.408 2.282,-5.224 0.318,-0.151 0.149,0.734 0.342,0.923 0.119,1.163 -0.362,1.727 -0.219,2.916 -0.431,4.464 -0.85,6.523 -0.219,9.622 0.407,1.051 0.64,2.276 1.458,2.916 0.073,0 0.146,0 0.219,0 0.339,-0.882 0.018,-3.77 0.633,-5.122 0.391,3.466 1.071,8.677 3.377,10.225 0.156,-1.186 -0.455,-3.408 -0.292,-5.321 0.133,-0.305 0.595,-0.28 0.656,-0.656 -0.333,-0.809 -0.076,-2.208 -0.364,-3.061 0.085,-1.185 -0.197,-2.287 0,-3.353 0.073,-0.462 -0.179,-1.277 0.067,-2.138 0.521,0.087 0.449,1.962 0.808,2.211 -0.344,2.569 0.416,4.627 1.239,6.269 0.502,-0.137 0.4,0.329 0.729,0.365 0.159,-3.239 -0.977,-6.785 -0.656,-10.424 0,-0.295 0.921,0.373 0.894,0.055 z m -70.545,-27.846 c -4.083,-3.796 -8.65,-7.108 -14.977,-8.659 -2.094,-0.117 -4.226,-0.196 -5.904,-0.729 -0.239,-0.247 -0.495,-0.477 -0.875,-0.583 -0.316,0 -0.632,0 -0.948,0 -1.7,-1.143 -2.971,-2.715 -4.446,-4.082 -0.186,0.275 -0.537,0.386 -0.729,0.656 0.92,0.762 1.102,1.907 1.458,3.134 -3.089,1.576 -4.841,4.489 -6.779,7.216 -2.61,1.861 -5.443,3.499 -8.31,5.103 0.177,1.635 -0.514,2.402 -0.51,3.863 0.353,0.4 0.77,0.736 0.802,1.458 1.107,0.399 1.807,1.206 3.28,1.239 1.393,-0.721 2.33,-1.897 4.228,-2.114 2.804,0.294 5.429,-0.768 8.601,-0.583 2.055,-0.667 2.468,-2.975 5.54,-2.624 2.176,0.764 2.996,2.884 4.009,4.811 0.559,1.074 0.889,2.379 1.38,3.522 4.016,-3.013 6.515,-5.378 10.902,-8.301 0.832,-0.919 2.344,-2.322 3.278,-3.327 z m -16.144,44.408 c 0.016,0.648 0.024,1.288 -0.146,1.75 1.013,2.68 1.225,6.161 1.239,9.84 0.544,1.375 1.299,2.54 2.114,3.645 0.51,2.09 1.13,4.07 2.333,5.467 0.421,-0.478 0.799,-0.999 1.385,-1.312 0.254,-1.01 0.522,-2.005 0.875,-2.916 -0.1,-1.188 -0.949,-1.626 -1.75,-2.114 -0.376,-0.636 -0.47,-1.945 -0.219,-2.77 -0.138,-0.615 -0.554,-0.952 -0.875,-1.385 -0.876,-2.843 -2.532,-7.648 -0.51,-10.351 1.651,-1.532 4.158,-2.208 6.123,-3.426 1.123,1.914 0.94,5.134 1.822,7.289 0.029,0.968 0.112,1.88 0.073,2.916 0.345,1.173 -0.193,2.655 0,4.155 1.002,2.817 1.518,6.97 0.146,9.549 0.24,3.738 -2.72,4.278 -3.353,7.144 -0.591,0.551 -0.908,1.376 -1.239,2.187 2.235,0.17 3.612,-0.519 5.467,-0.729 0.194,-0.535 0.618,-0.84 0.875,-1.312 -0.379,-0.18 -0.282,-0.836 -0.51,-1.166 0.483,-2.53 2.936,-3.089 3.207,-5.831 -0.474,-2.211 -0.302,-5.299 -0.146,-7.726 0.354,-0.473 0.24,-1.412 0.51,-1.968 0.094,-2.26 -0.157,-3.967 0.146,-5.977 0.365,-3.029 -0.055,-6.842 0.474,-9.707 -2.451,0.469 -5.779,0.999 -8.255,0.992 -2.698,0.111 -5.15,-0.058 -7.732,-0.085 -0.378,0.349 -0.723,0.73 -1.107,1.073 -0.385,0.851 -0.529,1.946 -0.947,2.768 z"
         id="path11"
         inkscape:connector-curvature="0"
         style="fill:#ffffff;stroke:#000000;stroke-opacity:0.13725491" /></g><g
       transform="matrix(-1.1555,0.0404,0.0404,1.1555,760.55007,229.97726)"
       id="g13"
       style="fill:#f9f9f9;stroke:#000000;stroke-opacity:0.13725491"><path
         d="m 533.328,347.958 c 1.816,0.003 3.507,-0.045 5.361,-0.219 1.466,-0.137 3.924,-0.956 5.237,-1.24 4.703,-1.016 9.197,-2.001 14.323,-0.728 0.736,-0.061 1.149,0.377 1.739,0.292 1.397,0.045 2.528,-0.178 3.55,-0.51 1.254,-1.265 2.38,-2.659 3.767,-3.79 0.613,-1.57 2.132,-2.228 3.477,-3.062 2.676,-0.472 3.833,1.19 5.868,1.604 3.168,3.931 3.422,10.795 4.636,16.693 -0.125,1.516 0.455,3.922 0.236,5.525 0.027,0.318 -0.889,-0.35 -0.888,-0.058 -0.319,3.639 0.81,7.185 0.652,10.424 -0.327,-0.036 -0.225,-0.502 -0.724,-0.365 -0.818,-1.642 -1.573,-3.7 -1.232,-6.269 -0.357,-0.249 -0.285,-2.124 -0.803,-2.211 -0.245,0.861 0.005,1.676 -0.067,2.138 -0.196,1.066 0.085,2.168 0,3.353 0.286,0.854 0.031,2.253 0.362,3.062 -0.061,0.376 -0.52,0.352 -0.652,0.656 -0.162,1.913 0.445,4.135 0.29,5.321 -2.291,-1.548 -2.967,-6.759 -3.356,-10.225 -0.611,1.353 -0.292,4.241 -0.629,5.122 -0.073,0 -0.145,0 -0.218,0 -0.812,-0.64 -1.045,-1.864 -1.449,-2.916 -0.628,-3.099 -0.211,-5.158 0.218,-9.622 -0.143,-1.188 0.335,-1.752 0.217,-2.916 -0.192,-0.189 -0.024,-1.074 -0.34,-0.923 -0.224,1.816 -1.588,3.866 -2.268,5.224 -0.518,-0.257 -0.375,-1.178 -0.652,-1.677 0.76,-6.142 -1.362,-11.126 -5.361,-13.194 -0.295,-0.005 -0.343,0.238 -0.724,0.146 0.837,2.681 2.473,4.558 3.332,7.216 0.768,2.902 0.34,6.596 -0.29,9.331 -0.614,1.86 -1.108,3.842 -1.521,5.904 0,0.365 0,0.729 0,1.094 0.08,0.26 0.21,0.468 0.145,0.875 1.429,3.616 4.216,5.866 7.245,7.872 0.16,0.277 0.263,0.61 0.435,0.875 -0.154,6.117 -0.916,14.05 0.797,19.244 -0.185,0.834 -0.879,1.156 -0.797,2.259 0.642,1.249 1.873,1.905 1.956,3.718 -0.304,0.544 -0.486,1.212 -0.797,1.749 -1.152,0.663 -1.745,1.889 -3.332,2.114 -0.779,-2.809 0.104,-7.167 -1.811,-8.966 -0.513,-4.931 0.694,-11.398 -1.014,-15.308 -1.607,-2.587 -3.864,-4.519 -6.23,-6.342 -0.269,1.406 1.511,2.596 1.739,4.228 -0.18,0.645 -0.257,1.393 -0.58,1.895 0,0.365 -0.488,1.332 -0.488,1.696 -0.309,0.952 -0.2,1.232 -0.599,2.094 -0.323,3.685 -1.709,6.3 -1.811,10.205 -0.399,0.91 -0.352,0.912 -0.961,2.06 -0.629,0.655 -1.698,1.777 -2.227,2.533 -0.06,0.717 0.056,1.256 0.145,1.822 -0.193,0.632 -0.862,0.785 -1.087,1.385 -1.624,0.182 -3.629,0.964 -5.071,0.073 0.08,-1.307 1.376,-2.015 1.594,-3.426 1.113,-0.775 2.144,-1.634 2.825,-2.843 0.463,-1.106 0.115,-1.667 0.502,-2.202 -0.012,-0.425 0.277,-0.611 0.223,-1.078 0.699,-2.236 1.568,-4.303 1.594,-7.216 0.545,-3.6 -1.212,-6.108 -1.956,-8.893 -1.629,-2.079 -2.693,-4.725 -3.839,-7.289 -2.136,-1.738 -2.138,-5.624 -5.651,-5.977 -0.501,0.103 -1.185,-0.074 -1.572,0.145 -3.578,0.704 -4.706,1.781 -8.209,2.77 -3.771,1.429 -8.703,1.35 -13.752,1.494 -2.397,0.174 -6.524,-0.48 -8.706,-0.765 -1.724,2.736 -0.826,8.11 -1.304,12.1 -0.301,2.01 -0.051,3.717 -0.145,5.977 -0.268,0.556 -0.155,1.496 -0.507,1.968 -0.156,2.427 -0.326,5.515 0.145,7.727 -0.269,2.742 -2.708,3.301 -3.188,5.832 0.227,0.331 0.131,0.986 0.507,1.166 -0.255,0.472 -0.676,0.778 -0.869,1.312 -1.844,0.21 -3.212,0.899 -5.433,0.729 0.329,-0.811 0.644,-1.636 1.232,-2.187 0.629,-2.866 3.57,-3.405 3.332,-7.144 1.364,-2.579 0.851,-6.732 -0.145,-9.549 -0.192,-1.5 0.343,-2.982 0,-4.155 0.039,-1.035 -0.044,-1.948 -0.072,-2.916 -0.877,-2.155 -0.695,-5.375 -1.811,-7.289 -1.953,1.218 -4.444,1.894 -6.085,3.426 -2.009,2.703 -0.363,7.508 0.507,10.351 0.318,0.432 0.732,0.77 0.869,1.385 -0.25,0.825 -0.156,2.134 0.217,2.77 0.795,0.488 1.64,0.926 1.739,2.114 -0.35,0.911 -0.617,1.906 -0.869,2.916 -0.582,0.313 -0.958,0.834 -1.376,1.312 -1.195,-1.397 -1.811,-3.377 -2.318,-5.467 -0.809,-1.105 -1.56,-2.269 -2.101,-3.645 -0.014,-3.679 -0.225,-7.16 -1.232,-9.84 0.169,-0.462 0.161,-1.102 0.145,-1.75 0.415,-0.821 0.558,-1.916 0.942,-2.77 2.462,-2.212 4.784,-4.566 7.1,-6.925 -0.505,-0.755 -1.173,-1.347 -1.811,-1.968 -0.988,-2.796 -2.256,-5.311 -1.956,-9.403 0.5,-1.15 0.271,-3.032 0.507,-4.447 -1.131,-3.868 -2.499,-7.497 -4.202,-10.788 -1.006,-1.927 -1.822,-4.047 -3.984,-4.811 -3.053,-0.351 -3.464,1.958 -5.506,2.624 -3.153,-0.185 -5.762,0.877 -8.548,0.583 -1.886,0.216 -2.817,1.393 -4.202,2.114 -1.464,-0.033 -2.16,-0.84 -3.26,-1.239 -0.031,-0.722 -0.446,-1.057 -0.797,-1.458 -0.004,-1.462 0.683,-2.229 0.507,-3.863 2.849,-1.604 5.665,-3.241 8.259,-5.102 1.926,-2.727 3.668,-5.64 6.737,-7.216 -0.353,-1.228 -0.535,-2.372 -1.449,-3.134 0.191,-0.27 0.539,-0.381 0.725,-0.656 1.467,1.367 2.729,2.94 4.419,4.082 0.314,0 0.628,0 0.942,0 0.378,0.106 0.632,0.336 0.869,0.583 1.668,0.533 3.787,0.612 5.868,0.729 6.749,1.665 11.51,5.33 15.793,9.476 0.412,0.424 0.625,0.521 1.232,1.166 0.746,0.955 1.538,1.465 2.101,2.405 4.24,2.415 8.095,5.218 12.171,7.8 0.388,0.022 0.623,0.2 0.869,0.364 0.841,0.191 0.989,0.22 1.449,0.365"
         id="path15"
         inkscape:connector-curvature="0"
         style="fill:#f9f9f9;stroke:#000000;stroke-opacity:0.13725491" /></g><g
       transform="matrix(0,-1,1,0,115.67567,761.54116)"
       id="g17"
       style="fill:#ffffff;stroke:#000000;stroke-opacity:0.09803922"><path
         d="m -34.367,171.69 c 0,0 1.056,-0.05 1.056,-1.057 0,-0.252 -0.144,-0.453 -0.288,-0.604 -0.24,-0.352 -0.624,-0.352 -0.624,-0.352 0,0 -1.296,0.05 -2.16,0.101 -0.624,-0.101 -0.816,-0.503 -0.864,-1.208 0,0 0,-10.42 0,-10.42 0,-2.265 0.096,-4.883 0.096,-7.35 0,-2.215 -0.096,-2.165 -0.096,-7.501 0.048,-5.89 0.096,-176.232 0.096,-176.735 0,-1.258 -0.192,-5.235 -0.192,-7.4 0,-0.906 0.336,-1.309 1.248,-1.309 0.624,0 1.2,0 1.728,-0.05 0,0 1.056,-0.151 1.056,-1.158 0,-0.252 -0.144,-0.453 -0.288,-0.604 -0.24,-0.352 -0.624,-0.352 -0.624,-0.352 0,0 -3.168,0 -3.168,0 -0.336,-0.05 -0.624,0 -0.96,0 0,0 -1.056,-0.05 -1.056,0.956 -0.048,1.057 -0.048,1.309 -0.048,2.165 0,1.561 -0.096,6.141 -0.048,9.867 0,0.956 0,171.852 0.048,177.188 0.048,3.826 0.144,7.45 0.144,8.205 0.048,6.141 0.096,6.141 0.096,7.249 0,0 -0.048,4.027 -0.048,4.027 0,2.92 0.096,5.286 0.096,5.286 0,0.956 0.912,1.057 0.912,1.057 2.16,0.2 2.88,0.049 3.888,-0.001 z"
         id="path19"
         inkscape:connector-curvature="0"
         style="fill:#ffffff;stroke:#000000;stroke-opacity:0.09803922" /></g><g
       transform="matrix(0,1,-1,0,233.31057,781.04696)"
       id="g21"
       style="fill:#ffffff;stroke:#000000;stroke-opacity:0.09803922"><path
         d="m -34.367,161.647 c 0,0 1.056,-0.05 1.056,-1.056 0,-0.251 -0.144,-0.453 -0.288,-0.603 -0.24,-0.352 -0.624,-0.352 -0.624,-0.352 0,0 -1.296,0.05 -2.16,0.101 -0.624,-0.101 -0.816,-0.503 -0.864,-1.207 0,0 0,-10.41 0,-10.41 0,-2.263 0.096,-4.878 0.096,-7.342 0,-2.213 -0.096,-2.162 -0.096,-7.493 0.048,-5.884 0.096,-176.054 0.096,-176.556 0,-1.257 -0.192,-5.23 -0.192,-7.392 0,-0.905 0.336,-1.307 1.248,-1.307 0.624,0 1.2,0 1.728,-0.05 0,0 1.056,-0.151 1.056,-1.157 0,-0.251 -0.144,-0.453 -0.288,-0.603 -0.24,-0.352 -0.624,-0.352 -0.624,-0.352 0,0 -3.168,0 -3.168,0 -0.336,-0.05 -0.624,0 -0.96,0 0,0 -1.056,-0.05 -1.056,0.955 -0.048,1.056 -0.048,1.307 -0.048,2.162 0,1.559 -0.096,6.135 -0.048,9.857 0,0.955 0,171.678 0.048,177.009 0.048,3.822 0.144,7.443 0.144,8.197 0.048,6.135 0.096,6.135 0.096,7.242 0,0 -0.048,4.023 -0.048,4.023 0,2.917 0.096,5.28 0.096,5.28 0,0.955 0.912,1.056 0.912,1.056 2.16,0.199 2.88,0.048 3.888,-0.002 z"
         id="path23"
         inkscape:connector-curvature="0"
         style="fill:#ffffff;stroke:#000000;stroke-opacity:0.09803922" /></g><g
       transform="translate(210.22317,843.10506)"
       id="g25"
       style="fill:#ffffff;stroke:#000000;stroke-opacity:0.13725491"><path
         d="m -121.054,-61.912 c -0.523,1.044 -1.301,1.566 -2.333,1.566 -0.658,0 -1.23,-0.248 -1.716,-0.745 -0.486,-0.497 -0.729,-1.079 -0.729,-1.746 0,-0.578 0.184,-1.078 0.551,-1.501 0.367,-0.422 0.806,-0.634 1.316,-0.634 0.27,0 0.54,0.054 0.81,0.161 0.225,0.081 0.39,0.121 0.495,0.121 0.51,0 0.765,-0.29 0.765,-0.871 0,-0.625 -0.442,-1.209 -1.327,-1.752 -0.885,-0.543 -1.844,-0.815 -2.878,-0.815 -1.694,0 -3.082,0.636 -4.161,1.906 -0.84,1.001 -1.259,2.16 -1.259,3.476 0,1.929 0.801,3.476 2.404,4.642 1.573,1.151 3.482,1.727 5.729,1.727 3.37,0 6.216,-1.294 8.538,-3.884 1.303,-1.481 1.955,-2.687 1.955,-3.615 0,-0.329 -0.156,-0.726 -0.469,-1.19 -0.759,-1.078 -1.124,-2.537 -1.094,-4.378 0,0 0,-8.67 0,-8.67 0,-2.739 0.097,-4.501 0.291,-5.288 0.194,-0.786 0.709,-1.486 1.545,-2.1 0.776,-0.584 1.164,-1.063 1.164,-1.438 0,-0.224 -0.098,-0.426 -0.292,-0.606 -0.194,-0.18 -0.412,-0.27 -0.651,-0.27 -0.18,0 -0.442,0.074 -0.787,0.222 -1.589,0.665 -3.087,0.997 -4.496,0.997 -1.333,0 -2.832,-0.272 -4.495,-0.816 -0.645,-0.206 -1.079,-0.309 -1.304,-0.309 -0.255,0 -0.476,0.086 -0.663,0.258 -0.187,0.172 -0.281,0.378 -0.281,0.617 0,0.419 0.359,0.823 1.079,1.212 1.184,0.629 1.94,1.388 2.27,2.278 0.33,0.891 0.495,2.637 0.495,5.241 0,0 0,12.758 0,12.758 -0.001,1.687 -0.158,2.835 -0.472,3.446 0,0 0,0 0,0 z m 24.556,3.608 c 0.075,0.464 0.217,0.771 0.427,0.921 0.209,0.15 0.591,0.225 1.146,0.225 0,0 4.604,0 4.604,0 0.541,0 0.812,-0.217 0.812,-0.651 0,-0.209 -0.045,-0.371 -0.135,-0.483 -0.09,-0.112 -0.323,-0.288 -0.699,-0.528 -0.524,-0.225 -0.943,-1.235 -1.258,-3.032 0,0 -1.548,-10.274 -1.548,-10.274 -0.568,-3.792 -2.356,-5.688 -5.363,-5.688 -0.613,0 -1.287,0.051 -2.02,0.153 -1.316,0.189 -2.296,0.284 -2.939,0.284 -0.628,0 -1.556,-0.217 -2.783,-0.651 -0.239,-0.087 -0.412,-0.13 -0.516,-0.13 -0.299,0 -0.591,0.289 -0.875,0.866 -0.284,0.577 -0.426,1.18 -0.426,1.81 0,1.454 0.508,2.607 1.524,3.462 0.657,0.555 1.457,0.832 2.398,0.832 0.643,0 1.232,-0.112 1.771,-0.337 0.538,-0.225 0.807,-0.472 0.807,-0.742 0,-0.24 -0.075,-0.405 -0.223,-0.495 -0.477,-0.285 -0.714,-0.585 -0.714,-0.9 0,-0.3 0.126,-0.551 0.379,-0.753 0.253,-0.202 0.558,-0.304 0.915,-0.304 0.774,0 1.38,0.367 1.819,1.1 0.439,0.733 0.822,1.997 1.149,3.791 0.387,2.139 0.581,3.882 0.581,5.228 0,1.211 -0.291,2.188 -0.872,2.928 -0.581,0.74 -1.341,1.11 -2.28,1.11 -0.775,0 -1.386,-0.292 -1.833,-0.876 -0.447,-0.599 -0.671,-1.318 -0.671,-2.157 0,-0.719 0.183,-1.325 0.549,-1.819 0.366,-0.494 0.818,-0.742 1.357,-0.742 0.643,0 1.151,0.381 1.525,1.143 0.134,0.259 0.284,0.389 0.448,0.389 0.269,0 0.497,-0.168 0.684,-0.505 0.187,-0.337 0.28,-0.752 0.28,-1.246 0,-1.197 -0.371,-2.147 -1.112,-2.85 -0.741,-0.703 -1.741,-1.055 -2.999,-1.055 -1.572,0 -2.965,0.523 -4.178,1.57 -1.453,1.271 -2.179,3.006 -2.179,5.204 0,1.885 0.562,3.44 1.686,4.666 1.333,1.436 3.026,2.153 5.079,2.153 2.501,0 4.314,-1.084 5.438,-3.254 -0.002,-0.002 0.245,1.637 0.245,1.637 z m 15.508,-18.948 c 0,0 0,-5.57 0,-5.57 0,-0.748 -0.06,-1.231 -0.18,-1.448 -0.12,-0.217 -0.382,-0.326 -0.786,-0.326 -0.554,0 -0.914,0.367 -1.078,1.102 -0.359,1.544 -0.696,2.623 -1.011,3.237 -0.943,1.858 -2.561,3.065 -4.852,3.62 0,0 0,2.073 0,2.073 h 2.594 c 0,0 0,12.612 0,12.612 0,1.538 0.172,2.665 0.517,3.381 0.285,0.553 0.771,1.004 1.461,1.355 0.69,0.351 1.446,0.526 2.271,0.526 1.618,0 2.982,-0.553 4.091,-1.66 0.794,-0.792 1.191,-1.496 1.191,-2.109 0,-0.404 -0.188,-0.606 -0.564,-0.606 -0.136,0 -0.346,0.103 -0.632,0.308 -0.466,0.337 -0.925,0.505 -1.376,0.505 -0.677,0 -1.151,-0.355 -1.421,-1.067 -0.15,-0.4 -0.226,-1.082 -0.226,-2.044 0,0 0,-11.201 0,-11.201 h 3.281 v -2.688 h -3.28 z m 15.007,19.42 c 0,-0.284 -0.242,-0.569 -0.724,-0.854 -0.559,-0.329 -0.905,-0.842 -1.041,-1.539 -0.136,-0.697 -0.204,-2.28 -0.204,-4.75 0,0 0,-11.792 0,-11.792 0,-0.698 -0.195,-1.048 -0.583,-1.048 -0.24,0 -0.532,0.127 -0.875,0.381 -1.317,1.047 -2.985,1.743 -5.005,2.087 -0.524,0.075 -0.786,0.322 -0.786,0.74 0,0.3 0.203,0.554 0.608,0.763 0.615,0.314 0.991,0.669 1.126,1.066 0.135,0.397 0.203,1.328 0.203,2.793 0,0 0,5.009 0,5.009 0,2.456 -0.068,4.036 -0.204,4.739 -0.136,0.704 -0.483,1.221 -1.041,1.55 -0.483,0.285 -0.724,0.569 -0.724,0.854 0,0.449 0.349,0.674 1.048,0.674 0,0 7.154,0 7.154,0 0.698,10e-4 1.048,-0.224 1.048,-0.673 0,0 0,0 0,0 z m -6.609,-26.039 c -0.553,0.545 -0.829,1.199 -0.829,1.961 0,0.792 0.272,1.464 0.818,2.017 0.545,0.553 1.214,0.829 2.006,0.829 0.777,0 1.438,-0.276 1.983,-0.829 0.545,-0.553 0.818,-1.217 0.818,-1.995 0,-0.762 -0.273,-1.419 -0.818,-1.972 -0.545,-0.553 -1.191,-0.829 -1.938,-0.829 -0.807,0 -1.487,0.273 -2.04,0.818 z m 17.597,26.522 c 0.197,-0.127 0.296,-0.288 0.296,-0.483 0,-0.284 -0.242,-0.569 -0.724,-0.854 -0.543,-0.329 -0.886,-0.846 -1.03,-1.55 -0.144,-0.704 -0.215,-2.283 -0.215,-4.739 0,0 0,-22.438 0,-22.438 0,-0.705 -0.195,-1.058 -0.583,-1.058 -0.24,0 -0.532,0.127 -0.875,0.382 -1.302,1.049 -2.97,1.745 -5.005,2.089 -0.524,0.075 -0.786,0.322 -0.786,0.742 0,0.3 0.203,0.554 0.608,0.764 0.615,0.314 0.991,0.67 1.126,1.067 0.135,0.397 0.203,1.329 0.203,2.797 0,0 0,15.655 0,15.655 0,2.471 -0.072,4.054 -0.215,4.75 -0.143,0.696 -0.486,1.209 -1.029,1.539 -0.483,0.285 -0.724,0.569 -0.724,0.854 0,0.449 0.349,0.674 1.048,0.674 0,0 7.154,0 7.154,0 0.303,0 0.553,-0.064 0.751,-0.191 z m 15.095,-0.955 c 0.075,0.464 0.217,0.771 0.427,0.921 0.209,0.15 0.591,0.225 1.146,0.225 0,0 4.604,0 4.604,0 0.541,0 0.812,-0.217 0.812,-0.651 0,-0.209 -0.045,-0.371 -0.135,-0.483 -0.09,-0.112 -0.323,-0.288 -0.699,-0.528 -0.524,-0.225 -0.943,-1.235 -1.258,-3.032 0,0 -1.548,-10.274 -1.548,-10.274 -0.568,-3.792 -2.356,-5.688 -5.363,-5.688 -0.613,0 -1.287,0.051 -2.02,0.153 -1.316,0.189 -2.296,0.284 -2.939,0.284 -0.628,0 -1.556,-0.217 -2.783,-0.651 -0.239,-0.087 -0.412,-0.13 -0.516,-0.13 -0.299,0 -0.591,0.289 -0.875,0.866 -0.284,0.577 -0.426,1.18 -0.426,1.81 0,1.454 0.508,2.607 1.524,3.462 0.657,0.555 1.457,0.832 2.398,0.832 0.643,0 1.232,-0.112 1.771,-0.337 0.538,-0.225 0.807,-0.472 0.807,-0.742 0,-0.24 -0.075,-0.405 -0.223,-0.495 -0.477,-0.285 -0.714,-0.585 -0.714,-0.9 0,-0.3 0.126,-0.551 0.379,-0.753 0.253,-0.202 0.558,-0.304 0.915,-0.304 0.774,0 1.38,0.367 1.819,1.1 0.439,0.733 0.822,1.997 1.149,3.791 0.387,2.139 0.581,3.882 0.581,5.228 0,1.211 -0.291,2.188 -0.872,2.928 -0.581,0.74 -1.341,1.11 -2.28,1.11 -0.775,0 -1.386,-0.292 -1.833,-0.876 -0.447,-0.599 -0.671,-1.318 -0.671,-2.157 0,-0.719 0.183,-1.325 0.549,-1.819 0.366,-0.494 0.818,-0.742 1.357,-0.742 0.643,0 1.151,0.381 1.525,1.143 0.134,0.259 0.284,0.389 0.448,0.389 0.269,0 0.497,-0.168 0.684,-0.505 0.187,-0.337 0.28,-0.752 0.28,-1.246 0,-1.197 -0.371,-2.147 -1.112,-2.85 -0.741,-0.703 -1.741,-1.055 -2.999,-1.055 -1.572,0 -2.965,0.523 -4.178,1.57 -1.453,1.271 -2.179,3.006 -2.179,5.204 0,1.885 0.562,3.44 1.686,4.666 1.333,1.436 3.026,2.153 5.079,2.153 2.501,0 4.314,-1.084 5.438,-3.254 -0.002,-0.002 0.245,1.637 0.245,1.637 z m 15.789,-18.463 c 0,-0.698 -0.195,-1.048 -0.583,-1.048 -0.24,0 -0.532,0.127 -0.875,0.381 -1.317,1.047 -2.985,1.743 -5.005,2.087 -0.524,0.075 -0.786,0.322 -0.786,0.74 0,0.3 0.203,0.554 0.608,0.763 0.615,0.314 0.991,0.669 1.126,1.066 0.135,0.397 0.203,1.328 0.203,2.793 0,0 0,5.009 0,5.009 0,2.456 -0.068,4.036 -0.204,4.739 -0.136,0.704 -0.483,1.221 -1.041,1.55 -0.483,0.285 -0.724,0.569 -0.724,0.854 0,0.449 0.349,0.674 1.048,0.674 0,0 7.156,0 7.156,0 0.697,0 1.046,-0.225 1.046,-0.674 0,-0.284 -0.242,-0.569 -0.724,-0.854 -0.559,-0.329 -0.905,-0.842 -1.041,-1.539 -0.136,-0.697 -0.204,-2.28 -0.204,-4.75 0,0 0,-4.784 0,-4.784 0,-1.274 0.259,-2.263 0.776,-2.968 0.518,-0.704 1.242,-1.057 2.172,-1.057 1.065,0 1.764,0.502 2.094,1.506 0.18,0.555 0.27,1.394 0.27,2.518 0,0 0,4.784 0,4.784 0,2.456 -0.071,4.036 -0.213,4.739 -0.142,0.704 -0.488,1.221 -1.04,1.55 -0.478,0.285 -0.716,0.569 -0.716,0.854 0,0.449 0.349,0.674 1.046,0.674 0,0 7.156,0 7.156,0 0.698,0 1.048,-0.225 1.048,-0.674 0,-0.284 -0.242,-0.569 -0.724,-0.854 -0.559,-0.329 -0.905,-0.846 -1.041,-1.55 -0.136,-0.704 -0.204,-2.283 -0.204,-4.739 0,0 0,-5.997 0,-5.997 0,-1.26 -0.022,-2.071 -0.067,-2.431 -0.165,-1.365 -0.741,-2.438 -1.729,-3.219 -1.004,-0.795 -2.232,-1.193 -3.684,-1.193 -1.977,0 -3.692,0.851 -5.144,2.553 0,0.002 0,-1.503 0,-1.503 z m 34.172,-0.485 c 0,0 0,-5.57 0,-5.57 0,-0.748 -0.06,-1.231 -0.18,-1.448 -0.12,-0.217 -0.382,-0.326 -0.786,-0.326 -0.554,0 -0.914,0.367 -1.078,1.102 -0.359,1.544 -0.696,2.623 -1.011,3.237 -0.943,1.858 -2.561,3.065 -4.852,3.62 0,0 0,2.073 0,2.073 h 2.594 c 0,0 0,12.612 0,12.612 0,1.538 0.172,2.665 0.517,3.381 0.285,0.553 0.771,1.004 1.461,1.355 0.69,0.351 1.446,0.526 2.271,0.526 1.618,0 2.982,-0.553 4.091,-1.66 0.794,-0.792 1.191,-1.496 1.191,-2.109 0,-0.404 -0.188,-0.606 -0.564,-0.606 -0.136,0 -0.346,0.103 -0.632,0.308 -0.466,0.337 -0.925,0.505 -1.376,0.505 -0.677,0 -1.151,-0.355 -1.421,-1.067 -0.15,-0.4 -0.226,-1.082 -0.226,-2.044 0,0 0,-11.201 0,-11.201 h 3.281 v -2.688 h -3.28 z m 18.766,18.948 c 0.075,0.464 0.217,0.771 0.427,0.921 0.209,0.15 0.591,0.225 1.146,0.225 0,0 4.604,0 4.604,0 0.541,0 0.812,-0.217 0.812,-0.651 0,-0.209 -0.045,-0.371 -0.135,-0.483 -0.09,-0.112 -0.323,-0.288 -0.699,-0.528 -0.524,-0.225 -0.943,-1.235 -1.258,-3.032 0,0 -1.548,-10.274 -1.548,-10.274 -0.568,-3.792 -2.356,-5.688 -5.363,-5.688 -0.613,0 -1.287,0.051 -2.02,0.153 -1.316,0.189 -2.296,0.284 -2.939,0.284 -0.628,0 -1.556,-0.217 -2.783,-0.651 -0.239,-0.087 -0.412,-0.13 -0.516,-0.13 -0.299,0 -0.591,0.289 -0.875,0.866 -0.284,0.577 -0.426,1.18 -0.426,1.81 0,1.454 0.508,2.607 1.524,3.462 0.657,0.555 1.457,0.832 2.398,0.832 0.643,0 1.232,-0.112 1.771,-0.337 0.538,-0.225 0.807,-0.472 0.807,-0.742 0,-0.24 -0.075,-0.405 -0.223,-0.495 -0.477,-0.285 -0.714,-0.585 -0.714,-0.9 0,-0.3 0.126,-0.551 0.379,-0.753 0.253,-0.202 0.558,-0.304 0.915,-0.304 0.774,0 1.38,0.367 1.819,1.1 0.439,0.733 0.822,1.997 1.149,3.791 0.387,2.139 0.581,3.882 0.581,5.228 0,1.211 -0.291,2.188 -0.872,2.928 -0.581,0.74 -1.341,1.11 -2.28,1.11 -0.775,0 -1.386,-0.292 -1.833,-0.876 -0.447,-0.599 -0.671,-1.318 -0.671,-2.157 0,-0.719 0.183,-1.325 0.549,-1.819 0.366,-0.494 0.818,-0.742 1.357,-0.742 0.643,0 1.151,0.381 1.525,1.143 0.134,0.259 0.284,0.389 0.448,0.389 0.269,0 0.497,-0.168 0.684,-0.505 0.187,-0.337 0.28,-0.752 0.28,-1.246 0,-1.197 -0.371,-2.147 -1.112,-2.85 -0.741,-0.703 -1.741,-1.055 -2.999,-1.055 -1.572,0 -2.965,0.523 -4.178,1.57 -1.453,1.271 -2.179,3.006 -2.179,5.204 0,1.885 0.562,3.44 1.686,4.666 1.333,1.436 3.026,2.153 5.079,2.153 2.501,0 4.314,-1.084 5.438,-3.254 -0.002,-0.002 0.245,1.637 0.245,1.637 z m 17.336,0.955 c 0.197,-0.127 0.296,-0.288 0.296,-0.483 0,-0.284 -0.242,-0.569 -0.724,-0.854 -0.543,-0.329 -0.886,-0.846 -1.03,-1.55 -0.144,-0.704 -0.215,-2.283 -0.215,-4.739 0,0 0,-22.438 0,-22.438 0,-0.705 -0.195,-1.058 -0.583,-1.058 -0.24,0 -0.532,0.127 -0.875,0.382 -1.302,1.049 -2.97,1.745 -5.005,2.089 -0.524,0.075 -0.786,0.322 -0.786,0.742 0,0.3 0.203,0.554 0.608,0.764 0.615,0.314 0.991,0.67 1.126,1.067 0.135,0.397 0.203,1.329 0.203,2.797 0,0 0,15.655 0,15.655 0,2.471 -0.072,4.054 -0.215,4.75 -0.143,0.696 -0.486,1.209 -1.029,1.539 -0.483,0.285 -0.724,0.569 -0.724,0.854 0,0.449 0.349,0.674 1.048,0.674 0,0 7.154,0 7.154,0 0.304,0 0.554,-0.064 0.751,-0.191 z m 11.162,0 c 0.197,-0.127 0.296,-0.288 0.296,-0.483 0,-0.284 -0.242,-0.569 -0.724,-0.854 -0.543,-0.329 -0.886,-0.846 -1.03,-1.55 -0.144,-0.704 -0.215,-2.283 -0.215,-4.739 0,0 0,-22.438 0,-22.438 0,-0.705 -0.195,-1.058 -0.583,-1.058 -0.24,0 -0.532,0.127 -0.875,0.382 -1.302,1.049 -2.97,1.745 -5.005,2.089 -0.524,0.075 -0.786,0.322 -0.786,0.742 0,0.3 0.203,0.554 0.608,0.764 0.615,0.314 0.991,0.67 1.126,1.067 0.135,0.397 0.203,1.329 0.203,2.797 0,0 0,15.655 0,15.655 0,2.471 -0.072,4.054 -0.215,4.75 -0.143,0.696 -0.486,1.209 -1.029,1.539 -0.483,0.285 -0.724,0.569 -0.724,0.854 0,0.449 0.349,0.674 1.048,0.674 0,0 7.154,0 7.154,0 0.304,0 0.554,-0.064 0.751,-0.191 z m 11.584,-0.483 c 0,-0.284 -0.242,-0.569 -0.724,-0.854 -0.559,-0.329 -0.905,-0.842 -1.041,-1.539 -0.136,-0.697 -0.204,-2.28 -0.204,-4.75 0,0 0,-11.792 0,-11.792 0,-0.698 -0.195,-1.048 -0.583,-1.048 -0.24,0 -0.532,0.127 -0.875,0.381 -1.317,1.047 -2.985,1.743 -5.005,2.087 -0.524,0.075 -0.786,0.322 -0.786,0.74 0,0.3 0.203,0.554 0.608,0.763 0.615,0.314 0.991,0.669 1.126,1.066 0.135,0.397 0.203,1.328 0.203,2.793 0,0 0,5.009 0,5.009 0,2.456 -0.068,4.036 -0.204,4.739 -0.136,0.704 -0.483,1.221 -1.041,1.55 -0.483,0.285 -0.724,0.569 -0.724,0.854 0,0.449 0.349,0.674 1.048,0.674 0,0 7.154,0 7.154,0 0.698,10e-4 1.048,-0.224 1.048,-0.673 0,0 0,0 0,0 z m -6.608,-26.039 c -0.553,0.545 -0.829,1.199 -0.829,1.961 0,0.792 0.272,1.464 0.818,2.017 0.545,0.553 1.214,0.829 2.006,0.829 0.777,0 1.438,-0.276 1.983,-0.829 0.545,-0.553 0.818,-1.217 0.818,-1.995 0,-0.762 -0.273,-1.419 -0.818,-1.972 -0.545,-0.553 -1.191,-0.829 -1.938,-0.829 -0.808,0 -1.488,0.273 -2.04,0.818 z"
         id="path27"
         inkscape:connector-curvature="0"
         style="fill:#ffffff;stroke:#000000;stroke-opacity:0.13725491" /></g></g></svg>